# xmcd
#
# Track frame offsets:
# 150
# 18175
# 37225
# 49187
# 62937
# 79537
# 92425
# 109050
# 121962
# 138975
# 157662
#
# Disc length: 2391 seconds
#
#
# Revision: 0
# Processed by: cddbd v1.5.1PL0 Copyright (c) Steve Scherf et al.
# Submitted via: FreeRIP 2.92 
#
DISCID=8309550b
DTITLE=Ambros, Wolfgang - Eigenheiten
DYEAR=1990
DGENRE=Deutsch
TTITLE0=Wolfgang Amadeus Mozart
TTITLE1=Mädchen Marihuana
TTITLE2=Des kannst net machn
TTITLE3=Heidenspass
TTITLE4=Oh Rosemarie
TTITLE5=I werd mi bessern
TTITLE6=I drah zua
TTITLE7=Alfred Hitter
TTITLE8=Alfred Hitter
TTITLE9=Eigenheiten
TTITLE10=Nur das Summen einer Fliege
EXTD=
EXTT0=
EXTT1=
EXTT2=
EXTT3=
EXTT4=
EXTT5=
EXTT6=
EXTT7=
EXTT8=
EXTT9=
EXTT10=
PLAYORDER=
